<mxfile host="Electron" agent="Mozilla/5.0 (Windows NT 10.0; Win64; x64) AppleWebKit/537.36 (KHTML, like Gecko) draw.io/27.0.9 Chrome/134.0.6998.205 Electron/35.4.0 Safari/537.36" version="27.0.9">
  <diagram name="Seite-1" id="YMlRvp4VHCboZSjmHCUJ">
    <mxGraphModel dx="2328" dy="972" grid="1" gridSize="10" guides="1" tooltips="1" connect="1" arrows="1" fold="1" page="1" pageScale="1" pageWidth="827" pageHeight="1169" math="0" shadow="0">
      <root>
        <mxCell id="0" />
        <mxCell id="1" parent="0" />
        <mxCell id="peA1cHa59COo_uJrest4-1" value="Flugtyp" style="ellipse;whiteSpace=wrap;html=1;" parent="1" vertex="1">
          <mxGeometry x="240" y="80" width="120" height="80" as="geometry" />
        </mxCell>
        <mxCell id="peA1cHa59COo_uJrest4-2" value="Flugart" style="rounded=0;whiteSpace=wrap;html=1;" parent="1" vertex="1">
          <mxGeometry x="165" y="175" width="120" height="60" as="geometry" />
        </mxCell>
        <mxCell id="peA1cHa59COo_uJrest4-3" value="Id" style="ellipse;whiteSpace=wrap;html=1;fontStyle=4" parent="1" vertex="1">
          <mxGeometry x="45" y="70" width="120" height="80" as="geometry" />
        </mxCell>
        <mxCell id="peA1cHa59COo_uJrest4-4" value="" style="endArrow=none;html=1;rounded=0;" parent="1" source="peA1cHa59COo_uJrest4-3" target="peA1cHa59COo_uJrest4-2" edge="1">
          <mxGeometry width="50" height="50" relative="1" as="geometry">
            <mxPoint x="80" y="260" as="sourcePoint" />
            <mxPoint x="130" y="210" as="targetPoint" />
          </mxGeometry>
        </mxCell>
        <mxCell id="peA1cHa59COo_uJrest4-5" value="" style="endArrow=none;html=1;rounded=0;" parent="1" source="peA1cHa59COo_uJrest4-2" target="peA1cHa59COo_uJrest4-1" edge="1">
          <mxGeometry width="50" height="50" relative="1" as="geometry">
            <mxPoint x="340" y="150" as="sourcePoint" />
            <mxPoint x="390" y="100" as="targetPoint" />
          </mxGeometry>
        </mxCell>
        <mxCell id="peA1cHa59COo_uJrest4-6" value="Flugzeug" style="rounded=0;whiteSpace=wrap;html=1;" parent="1" vertex="1">
          <mxGeometry x="-70" y="380" width="120" height="60" as="geometry" />
        </mxCell>
        <mxCell id="peA1cHa59COo_uJrest4-12" value="Id" style="ellipse;whiteSpace=wrap;html=1;fontStyle=4" parent="1" vertex="1">
          <mxGeometry x="-240" y="110" width="120" height="80" as="geometry" />
        </mxCell>
        <mxCell id="peA1cHa59COo_uJrest4-13" value="Kennzeichen" style="ellipse;whiteSpace=wrap;html=1;" parent="1" vertex="1">
          <mxGeometry x="-320" y="510" width="120" height="80" as="geometry" />
        </mxCell>
        <mxCell id="peA1cHa59COo_uJrest4-14" value="Flugzeugtyp" style="ellipse;whiteSpace=wrap;html=1;" parent="1" vertex="1">
          <mxGeometry x="-210" y="830" width="120" height="80" as="geometry" />
        </mxCell>
        <mxCell id="peA1cHa59COo_uJrest4-17" value="" style="endArrow=none;html=1;rounded=0;" parent="1" source="peA1cHa59COo_uJrest4-13" target="peA1cHa59COo_uJrest4-6" edge="1">
          <mxGeometry width="50" height="50" relative="1" as="geometry">
            <mxPoint x="20" y="720" as="sourcePoint" />
            <mxPoint x="70" y="670" as="targetPoint" />
          </mxGeometry>
        </mxCell>
        <mxCell id="peA1cHa59COo_uJrest4-18" value="" style="endArrow=none;html=1;rounded=0;" parent="1" source="peA1cHa59COo_uJrest4-12" target="peA1cHa59COo_uJrest4-6" edge="1">
          <mxGeometry width="50" height="50" relative="1" as="geometry">
            <mxPoint x="-200" y="550" as="sourcePoint" />
            <mxPoint x="-150" y="500" as="targetPoint" />
          </mxGeometry>
        </mxCell>
        <mxCell id="peA1cHa59COo_uJrest4-20" value="" style="endArrow=none;html=1;rounded=0;" parent="1" source="Q0D2h3UwgnJ5SMxdu1O4-1" target="peA1cHa59COo_uJrest4-6" edge="1">
          <mxGeometry width="50" height="50" relative="1" as="geometry">
            <mxPoint x="-10" y="810" as="sourcePoint" />
            <mxPoint x="-120" y="280" as="targetPoint" />
          </mxGeometry>
        </mxCell>
        <mxCell id="peA1cHa59COo_uJrest4-26" value="Kostenstelle" style="rounded=0;whiteSpace=wrap;html=1;" parent="1" vertex="1">
          <mxGeometry x="420" y="575" width="120" height="60" as="geometry" />
        </mxCell>
        <mxCell id="peA1cHa59COo_uJrest4-27" value="Id" style="ellipse;whiteSpace=wrap;html=1;fontStyle=4" parent="1" vertex="1">
          <mxGeometry x="240" y="680" width="120" height="80" as="geometry" />
        </mxCell>
        <mxCell id="peA1cHa59COo_uJrest4-28" value="Name" style="ellipse;whiteSpace=wrap;html=1;" parent="1" vertex="1">
          <mxGeometry x="550" y="750" width="120" height="80" as="geometry" />
        </mxCell>
        <mxCell id="peA1cHa59COo_uJrest4-29" value="Straße" style="ellipse;whiteSpace=wrap;html=1;" parent="1" vertex="1">
          <mxGeometry x="430" y="690" width="120" height="80" as="geometry" />
        </mxCell>
        <mxCell id="peA1cHa59COo_uJrest4-30" value="PLZ" style="ellipse;whiteSpace=wrap;html=1;" parent="1" vertex="1">
          <mxGeometry x="310" y="770" width="120" height="80" as="geometry" />
        </mxCell>
        <mxCell id="peA1cHa59COo_uJrest4-31" value="Ort" style="ellipse;whiteSpace=wrap;html=1;" parent="1" vertex="1">
          <mxGeometry x="570" y="660" width="120" height="80" as="geometry" />
        </mxCell>
        <mxCell id="peA1cHa59COo_uJrest4-32" value="" style="endArrow=none;html=1;rounded=0;entryX=0;entryY=0.5;entryDx=0;entryDy=0;" parent="1" source="peA1cHa59COo_uJrest4-27" target="peA1cHa59COo_uJrest4-26" edge="1">
          <mxGeometry width="50" height="50" relative="1" as="geometry">
            <mxPoint x="260" y="440" as="sourcePoint" />
            <mxPoint x="310" y="390" as="targetPoint" />
          </mxGeometry>
        </mxCell>
        <mxCell id="peA1cHa59COo_uJrest4-33" value="" style="endArrow=none;html=1;rounded=0;" parent="1" source="peA1cHa59COo_uJrest4-30" target="peA1cHa59COo_uJrest4-26" edge="1">
          <mxGeometry width="50" height="50" relative="1" as="geometry">
            <mxPoint x="170" y="850" as="sourcePoint" />
            <mxPoint x="220" y="800" as="targetPoint" />
          </mxGeometry>
        </mxCell>
        <mxCell id="peA1cHa59COo_uJrest4-34" value="" style="endArrow=none;html=1;rounded=0;" parent="1" source="peA1cHa59COo_uJrest4-28" target="peA1cHa59COo_uJrest4-26" edge="1">
          <mxGeometry width="50" height="50" relative="1" as="geometry">
            <mxPoint x="570" y="630" as="sourcePoint" />
            <mxPoint x="620" y="580" as="targetPoint" />
          </mxGeometry>
        </mxCell>
        <mxCell id="peA1cHa59COo_uJrest4-35" value="" style="endArrow=none;html=1;rounded=0;" parent="1" source="peA1cHa59COo_uJrest4-29" target="peA1cHa59COo_uJrest4-26" edge="1">
          <mxGeometry width="50" height="50" relative="1" as="geometry">
            <mxPoint x="600" y="540" as="sourcePoint" />
            <mxPoint x="650" y="490" as="targetPoint" />
          </mxGeometry>
        </mxCell>
        <mxCell id="peA1cHa59COo_uJrest4-36" value="" style="endArrow=none;html=1;rounded=0;" parent="1" source="peA1cHa59COo_uJrest4-31" target="peA1cHa59COo_uJrest4-26" edge="1">
          <mxGeometry width="50" height="50" relative="1" as="geometry">
            <mxPoint x="750" y="590" as="sourcePoint" />
            <mxPoint x="800" y="540" as="targetPoint" />
          </mxGeometry>
        </mxCell>
        <mxCell id="peA1cHa59COo_uJrest4-37" value="Benutzer" style="rounded=0;whiteSpace=wrap;html=1;" parent="1" vertex="1">
          <mxGeometry x="995" y="480" width="120" height="60" as="geometry" />
        </mxCell>
        <mxCell id="peA1cHa59COo_uJrest4-38" value="Id" style="ellipse;whiteSpace=wrap;html=1;fontStyle=4" parent="1" vertex="1">
          <mxGeometry x="1299.5" y="430" width="120" height="80" as="geometry" />
        </mxCell>
        <mxCell id="peA1cHa59COo_uJrest4-39" value="Nachname" style="ellipse;whiteSpace=wrap;html=1;" parent="1" vertex="1">
          <mxGeometry x="1156.5" y="350" width="120" height="80" as="geometry" />
        </mxCell>
        <mxCell id="peA1cHa59COo_uJrest4-40" value="Vorname" style="ellipse;whiteSpace=wrap;html=1;" parent="1" vertex="1">
          <mxGeometry x="1283.5" y="370" width="120" height="80" as="geometry" />
        </mxCell>
        <mxCell id="peA1cHa59COo_uJrest4-43" value="" style="endArrow=none;html=1;rounded=0;" parent="1" source="peA1cHa59COo_uJrest4-37" target="peA1cHa59COo_uJrest4-40" edge="1">
          <mxGeometry width="50" height="50" relative="1" as="geometry">
            <mxPoint x="740" y="470" as="sourcePoint" />
            <mxPoint x="790" y="420" as="targetPoint" />
          </mxGeometry>
        </mxCell>
        <mxCell id="peA1cHa59COo_uJrest4-44" value="" style="endArrow=none;html=1;rounded=0;" parent="1" source="peA1cHa59COo_uJrest4-37" target="peA1cHa59COo_uJrest4-39" edge="1">
          <mxGeometry width="50" height="50" relative="1" as="geometry">
            <mxPoint x="770" y="490" as="sourcePoint" />
            <mxPoint x="820" y="440" as="targetPoint" />
          </mxGeometry>
        </mxCell>
        <mxCell id="peA1cHa59COo_uJrest4-45" value="" style="endArrow=none;html=1;rounded=0;" parent="1" source="peA1cHa59COo_uJrest4-37" target="peA1cHa59COo_uJrest4-38" edge="1">
          <mxGeometry width="50" height="50" relative="1" as="geometry">
            <mxPoint x="910" y="500" as="sourcePoint" />
            <mxPoint x="960" y="450" as="targetPoint" />
          </mxGeometry>
        </mxCell>
        <mxCell id="peA1cHa59COo_uJrest4-46" value="zuständig für" style="rhombus;whiteSpace=wrap;html=1;" parent="1" vertex="1">
          <mxGeometry x="145" y="465" width="155" height="80" as="geometry" />
        </mxCell>
        <mxCell id="peA1cHa59COo_uJrest4-47" value="" style="endArrow=none;html=1;rounded=0;" parent="1" source="peA1cHa59COo_uJrest4-26" target="peA1cHa59COo_uJrest4-46" edge="1">
          <mxGeometry width="50" height="50" relative="1" as="geometry">
            <mxPoint x="500" y="400" as="sourcePoint" />
            <mxPoint x="550" y="350" as="targetPoint" />
          </mxGeometry>
        </mxCell>
        <mxCell id="peA1cHa59COo_uJrest4-48" value="[1..1]" style="text;html=1;align=center;verticalAlign=middle;whiteSpace=wrap;rounded=0;" parent="1" vertex="1">
          <mxGeometry x="410" y="545" width="60" height="30" as="geometry" />
        </mxCell>
        <mxCell id="peA1cHa59COo_uJrest4-49" value="" style="endArrow=none;html=1;rounded=0;" parent="1" source="peA1cHa59COo_uJrest4-6" target="peA1cHa59COo_uJrest4-46" edge="1">
          <mxGeometry width="50" height="50" relative="1" as="geometry">
            <mxPoint x="430" y="410" as="sourcePoint" />
            <mxPoint x="480" y="360" as="targetPoint" />
          </mxGeometry>
        </mxCell>
        <mxCell id="peA1cHa59COo_uJrest4-51" value="[1..*]" style="text;html=1;align=center;verticalAlign=middle;whiteSpace=wrap;rounded=0;" parent="1" vertex="1">
          <mxGeometry x="950" y="490" width="60" height="30" as="geometry" />
        </mxCell>
        <mxCell id="peA1cHa59COo_uJrest4-54" value="" style="endArrow=none;html=1;rounded=0;" parent="1" source="peA1cHa59COo_uJrest4-6" target="peA1cHa59COo_uJrest4-97" edge="1">
          <mxGeometry width="50" height="50" relative="1" as="geometry">
            <mxPoint x="390" y="410" as="sourcePoint" />
            <mxPoint x="487.6230425055928" y="349.4183445190156" as="targetPoint" />
          </mxGeometry>
        </mxCell>
        <mxCell id="peA1cHa59COo_uJrest4-56" value="[1..1]" style="text;html=1;align=center;verticalAlign=middle;whiteSpace=wrap;rounded=0;" parent="1" vertex="1">
          <mxGeometry x="40" y="405" width="60" height="30" as="geometry" />
        </mxCell>
        <mxCell id="peA1cHa59COo_uJrest4-58" value="bezahlt" style="ellipse;whiteSpace=wrap;html=1;" parent="1" vertex="1">
          <mxGeometry x="510" y="40" width="120" height="80" as="geometry" />
        </mxCell>
        <mxCell id="peA1cHa59COo_uJrest4-59" value="Startzeit" style="ellipse;whiteSpace=wrap;html=1;" parent="1" vertex="1">
          <mxGeometry x="640" y="50" width="120" height="80" as="geometry" />
        </mxCell>
        <mxCell id="peA1cHa59COo_uJrest4-60" value="Landezeit" style="ellipse;whiteSpace=wrap;html=1;" parent="1" vertex="1">
          <mxGeometry x="380" y="40" width="120" height="80" as="geometry" />
        </mxCell>
        <mxCell id="peA1cHa59COo_uJrest4-63" value="" style="endArrow=none;html=1;rounded=0;" parent="1" source="peA1cHa59COo_uJrest4-2" target="peA1cHa59COo_uJrest4-100" edge="1">
          <mxGeometry width="50" height="50" relative="1" as="geometry">
            <mxPoint x="330" y="340" as="sourcePoint" />
            <mxPoint x="472.3142414860681" y="318.482972136223" as="targetPoint" />
          </mxGeometry>
        </mxCell>
        <mxCell id="peA1cHa59COo_uJrest4-65" value="Bemerkung" style="ellipse;whiteSpace=wrap;html=1;" parent="1" vertex="1">
          <mxGeometry x="760" y="40" width="120" height="80" as="geometry" />
        </mxCell>
        <mxCell id="peA1cHa59COo_uJrest4-66" value="" style="endArrow=none;html=1;rounded=0;" parent="1" source="peA1cHa59COo_uJrest4-94" target="peA1cHa59COo_uJrest4-60" edge="1">
          <mxGeometry width="50" height="50" relative="1" as="geometry">
            <mxPoint x="515.6314814580005" y="296.12568698941914" as="sourcePoint" />
            <mxPoint x="460" y="230" as="targetPoint" />
          </mxGeometry>
        </mxCell>
        <mxCell id="peA1cHa59COo_uJrest4-67" value="" style="endArrow=none;html=1;rounded=0;" parent="1" source="peA1cHa59COo_uJrest4-94" target="peA1cHa59COo_uJrest4-58" edge="1">
          <mxGeometry width="50" height="50" relative="1" as="geometry">
            <mxPoint x="533.7642642566766" y="293.23316864860726" as="sourcePoint" />
            <mxPoint x="630" y="200" as="targetPoint" />
          </mxGeometry>
        </mxCell>
        <mxCell id="peA1cHa59COo_uJrest4-68" value="" style="endArrow=none;html=1;rounded=0;" parent="1" source="peA1cHa59COo_uJrest4-94" target="peA1cHa59COo_uJrest4-59" edge="1">
          <mxGeometry width="50" height="50" relative="1" as="geometry">
            <mxPoint x="548.4784348592548" y="300.827579282196" as="sourcePoint" />
            <mxPoint x="660" y="220" as="targetPoint" />
          </mxGeometry>
        </mxCell>
        <mxCell id="peA1cHa59COo_uJrest4-69" value="" style="endArrow=none;html=1;rounded=0;" parent="1" source="peA1cHa59COo_uJrest4-94" target="peA1cHa59COo_uJrest4-65" edge="1">
          <mxGeometry width="50" height="50" relative="1" as="geometry">
            <mxPoint x="558.8413197899076" y="306.1761650528556" as="sourcePoint" />
            <mxPoint x="710" y="250" as="targetPoint" />
          </mxGeometry>
        </mxCell>
        <mxCell id="peA1cHa59COo_uJrest4-70" value="Einflug" style="ellipse;whiteSpace=wrap;html=1;" parent="1" vertex="1">
          <mxGeometry x="864" y="80" width="120" height="80" as="geometry" />
        </mxCell>
        <mxCell id="peA1cHa59COo_uJrest4-71" value="Ausflug" style="ellipse;whiteSpace=wrap;html=1;" parent="1" vertex="1">
          <mxGeometry x="360" y="130" width="120" height="80" as="geometry" />
        </mxCell>
        <mxCell id="peA1cHa59COo_uJrest4-72" value="" style="endArrow=none;html=1;rounded=0;" parent="1" source="peA1cHa59COo_uJrest4-71" target="peA1cHa59COo_uJrest4-94" edge="1">
          <mxGeometry width="50" height="50" relative="1" as="geometry">
            <mxPoint x="310" y="360" as="sourcePoint" />
            <mxPoint x="502.6094890510949" y="302.8467153284671" as="targetPoint" />
          </mxGeometry>
        </mxCell>
        <mxCell id="peA1cHa59COo_uJrest4-73" value="" style="endArrow=none;html=1;rounded=0;" parent="1" source="peA1cHa59COo_uJrest4-94" target="peA1cHa59COo_uJrest4-70" edge="1">
          <mxGeometry width="50" height="50" relative="1" as="geometry">
            <mxPoint x="570.3107013072063" y="312.09584583597734" as="sourcePoint" />
            <mxPoint x="990" y="160" as="targetPoint" />
          </mxGeometry>
        </mxCell>
        <mxCell id="peA1cHa59COo_uJrest4-76" value="Rolle" style="rounded=0;whiteSpace=wrap;html=1;" parent="1" vertex="1">
          <mxGeometry x="1019" y="235" width="120" height="60" as="geometry" />
        </mxCell>
        <mxCell id="peA1cHa59COo_uJrest4-77" value="Id" style="ellipse;whiteSpace=wrap;html=1;fontStyle=4" parent="1" vertex="1">
          <mxGeometry x="1193.5" y="185" width="120" height="80" as="geometry" />
        </mxCell>
        <mxCell id="peA1cHa59COo_uJrest4-78" value="Rollentyp" style="ellipse;whiteSpace=wrap;html=1;" parent="1" vertex="1">
          <mxGeometry x="1060" y="130" width="120" height="80" as="geometry" />
        </mxCell>
        <mxCell id="peA1cHa59COo_uJrest4-79" value="" style="endArrow=none;html=1;rounded=0;" parent="1" source="peA1cHa59COo_uJrest4-78" target="peA1cHa59COo_uJrest4-76" edge="1">
          <mxGeometry width="50" height="50" relative="1" as="geometry">
            <mxPoint x="787" y="575" as="sourcePoint" />
            <mxPoint x="837" y="525" as="targetPoint" />
          </mxGeometry>
        </mxCell>
        <mxCell id="peA1cHa59COo_uJrest4-80" value="" style="endArrow=none;html=1;rounded=0;" parent="1" source="peA1cHa59COo_uJrest4-77" target="peA1cHa59COo_uJrest4-76" edge="1">
          <mxGeometry width="50" height="50" relative="1" as="geometry">
            <mxPoint x="1107" y="575" as="sourcePoint" />
            <mxPoint x="1157" y="525" as="targetPoint" />
          </mxGeometry>
        </mxCell>
        <mxCell id="peA1cHa59COo_uJrest4-81" value="ist" style="rhombus;whiteSpace=wrap;html=1;" parent="1" vertex="1">
          <mxGeometry x="984" y="330" width="155" height="80" as="geometry" />
        </mxCell>
        <mxCell id="peA1cHa59COo_uJrest4-82" value="" style="endArrow=none;html=1;rounded=0;" parent="1" source="peA1cHa59COo_uJrest4-37" target="peA1cHa59COo_uJrest4-81" edge="1">
          <mxGeometry width="50" height="50" relative="1" as="geometry">
            <mxPoint x="770" y="550" as="sourcePoint" />
            <mxPoint x="820" y="500" as="targetPoint" />
          </mxGeometry>
        </mxCell>
        <mxCell id="peA1cHa59COo_uJrest4-83" value="" style="endArrow=none;html=1;rounded=0;" parent="1" source="peA1cHa59COo_uJrest4-76" target="peA1cHa59COo_uJrest4-81" edge="1">
          <mxGeometry width="50" height="50" relative="1" as="geometry">
            <mxPoint x="810" y="560" as="sourcePoint" />
            <mxPoint x="860" y="510" as="targetPoint" />
          </mxGeometry>
        </mxCell>
        <mxCell id="peA1cHa59COo_uJrest4-84" value="[1..*]" style="text;html=1;align=center;verticalAlign=middle;whiteSpace=wrap;rounded=0;" parent="1" vertex="1">
          <mxGeometry x="1025" y="290" width="60" height="30" as="geometry" />
        </mxCell>
        <mxCell id="peA1cHa59COo_uJrest4-85" value="[1..*]" style="text;html=1;align=center;verticalAlign=middle;whiteSpace=wrap;rounded=0;" parent="1" vertex="1">
          <mxGeometry x="1010" y="455" width="60" height="30" as="geometry" />
        </mxCell>
        <mxCell id="peA1cHa59COo_uJrest4-86" value="zuständig für" style="rhombus;whiteSpace=wrap;html=1;" parent="1" vertex="1">
          <mxGeometry x="670" y="500" width="155" height="80" as="geometry" />
        </mxCell>
        <mxCell id="peA1cHa59COo_uJrest4-87" value="" style="endArrow=none;html=1;rounded=0;" parent="1" source="peA1cHa59COo_uJrest4-26" target="peA1cHa59COo_uJrest4-86" edge="1">
          <mxGeometry width="50" height="50" relative="1" as="geometry">
            <mxPoint x="520" y="470" as="sourcePoint" />
            <mxPoint x="570" y="420" as="targetPoint" />
          </mxGeometry>
        </mxCell>
        <mxCell id="peA1cHa59COo_uJrest4-88" value="[1..1]" style="text;html=1;align=center;verticalAlign=middle;whiteSpace=wrap;rounded=0;" parent="1" vertex="1">
          <mxGeometry x="530" y="550" width="60" height="30" as="geometry" />
        </mxCell>
        <mxCell id="peA1cHa59COo_uJrest4-89" value="" style="endArrow=none;html=1;rounded=0;" parent="1" source="peA1cHa59COo_uJrest4-86" target="peA1cHa59COo_uJrest4-37" edge="1">
          <mxGeometry width="50" height="50" relative="1" as="geometry">
            <mxPoint x="890.0014508580348" y="628.7207488299532" as="sourcePoint" />
            <mxPoint x="686.23" y="440" as="targetPoint" />
          </mxGeometry>
        </mxCell>
        <mxCell id="peA1cHa59COo_uJrest4-94" value="StartLandeListe" style="rounded=0;whiteSpace=wrap;html=1;" parent="1" vertex="1">
          <mxGeometry x="550" y="220" width="120" height="60" as="geometry" />
        </mxCell>
        <mxCell id="peA1cHa59COo_uJrest4-97" value="verwendet" style="rhombus;whiteSpace=wrap;html=1;" parent="1" vertex="1">
          <mxGeometry x="355" y="340" width="155" height="80" as="geometry" />
        </mxCell>
        <mxCell id="peA1cHa59COo_uJrest4-98" value="[1..*]" style="text;html=1;align=center;verticalAlign=middle;whiteSpace=wrap;rounded=0;" parent="1" vertex="1">
          <mxGeometry x="550" y="275" width="60" height="30" as="geometry" />
        </mxCell>
        <mxCell id="peA1cHa59COo_uJrest4-99" value="" style="endArrow=none;html=1;rounded=0;" parent="1" source="peA1cHa59COo_uJrest4-97" target="peA1cHa59COo_uJrest4-94" edge="1">
          <mxGeometry width="50" height="50" relative="1" as="geometry">
            <mxPoint x="510" y="450" as="sourcePoint" />
            <mxPoint x="560" y="400" as="targetPoint" />
          </mxGeometry>
        </mxCell>
        <mxCell id="peA1cHa59COo_uJrest4-100" value="hat" style="rhombus;whiteSpace=wrap;html=1;" parent="1" vertex="1">
          <mxGeometry x="342.5" y="240" width="155" height="80" as="geometry" />
        </mxCell>
        <mxCell id="peA1cHa59COo_uJrest4-101" value="" style="endArrow=none;html=1;rounded=0;" parent="1" source="peA1cHa59COo_uJrest4-100" target="peA1cHa59COo_uJrest4-94" edge="1">
          <mxGeometry width="50" height="50" relative="1" as="geometry">
            <mxPoint x="260" y="380" as="sourcePoint" />
            <mxPoint x="310" y="330" as="targetPoint" />
          </mxGeometry>
        </mxCell>
        <mxCell id="peA1cHa59COo_uJrest4-102" value="[1..1]" style="text;html=1;align=center;verticalAlign=middle;whiteSpace=wrap;rounded=0;" parent="1" vertex="1">
          <mxGeometry x="265" y="240" width="60" height="30" as="geometry" />
        </mxCell>
        <mxCell id="peA1cHa59COo_uJrest4-103" value="[1..*]" style="text;html=1;align=center;verticalAlign=middle;whiteSpace=wrap;rounded=0;" parent="1" vertex="1">
          <mxGeometry x="505" y="235" width="60" height="30" as="geometry" />
        </mxCell>
        <mxCell id="vmF1_-FJys3U0_ZO66zo-3" value="Passwort" style="ellipse;whiteSpace=wrap;html=1;" parent="1" vertex="1">
          <mxGeometry x="1292" y="520" width="120" height="80" as="geometry" />
        </mxCell>
        <mxCell id="vmF1_-FJys3U0_ZO66zo-4" value="" style="endArrow=none;html=1;rounded=0;" parent="1" source="peA1cHa59COo_uJrest4-37" target="vmF1_-FJys3U0_ZO66zo-3" edge="1">
          <mxGeometry width="50" height="50" relative="1" as="geometry">
            <mxPoint x="1120" y="520" as="sourcePoint" />
            <mxPoint x="1170" y="470" as="targetPoint" />
          </mxGeometry>
        </mxCell>
        <mxCell id="vmF1_-FJys3U0_ZO66zo-5" value="Email" style="ellipse;whiteSpace=wrap;html=1;" parent="1" vertex="1">
          <mxGeometry x="1172" y="565" width="120" height="80" as="geometry" />
        </mxCell>
        <mxCell id="vmF1_-FJys3U0_ZO66zo-6" value="" style="endArrow=none;html=1;rounded=0;" parent="1" source="peA1cHa59COo_uJrest4-37" target="vmF1_-FJys3U0_ZO66zo-5" edge="1">
          <mxGeometry width="50" height="50" relative="1" as="geometry">
            <mxPoint x="1160" y="540" as="sourcePoint" />
            <mxPoint x="1210" y="490" as="targetPoint" />
          </mxGeometry>
        </mxCell>
        <mxCell id="vmF1_-FJys3U0_ZO66zo-9" value="Id" style="ellipse;whiteSpace=wrap;html=1;fontStyle=4" parent="1" vertex="1">
          <mxGeometry x="804" y="170" width="120" height="80" as="geometry" />
        </mxCell>
        <mxCell id="vmF1_-FJys3U0_ZO66zo-10" value="" style="endArrow=none;html=1;rounded=0;" parent="1" source="vmF1_-FJys3U0_ZO66zo-9" target="peA1cHa59COo_uJrest4-94" edge="1">
          <mxGeometry width="50" height="50" relative="1" as="geometry">
            <mxPoint x="980" y="160" as="sourcePoint" />
            <mxPoint x="1030" y="110" as="targetPoint" />
          </mxGeometry>
        </mxCell>
        <mxCell id="vmF1_-FJys3U0_ZO66zo-11" value="Zählerstand" style="ellipse;whiteSpace=wrap;html=1;" parent="1" vertex="1">
          <mxGeometry x="-200" y="520" width="120" height="80" as="geometry" />
        </mxCell>
        <mxCell id="vmF1_-FJys3U0_ZO66zo-12" value="" style="endArrow=none;html=1;rounded=0;" parent="1" source="vmF1_-FJys3U0_ZO66zo-11" target="peA1cHa59COo_uJrest4-6" edge="1">
          <mxGeometry width="50" height="50" relative="1" as="geometry">
            <mxPoint x="10" y="680" as="sourcePoint" />
            <mxPoint x="60" y="630" as="targetPoint" />
          </mxGeometry>
        </mxCell>
        <mxCell id="oKezhVb2iY93yALDKkJJ-1" value="Grounded" style="ellipse;whiteSpace=wrap;html=1;" parent="1" vertex="1">
          <mxGeometry x="-380" y="435" width="120" height="80" as="geometry" />
        </mxCell>
        <mxCell id="oKezhVb2iY93yALDKkJJ-2" value="" style="endArrow=none;html=1;rounded=0;" parent="1" source="peA1cHa59COo_uJrest4-6" target="oKezhVb2iY93yALDKkJJ-1" edge="1">
          <mxGeometry width="50" height="50" relative="1" as="geometry">
            <mxPoint x="40" y="830" as="sourcePoint" />
            <mxPoint x="90" y="780" as="targetPoint" />
          </mxGeometry>
        </mxCell>
        <mxCell id="Q0D2h3UwgnJ5SMxdu1O4-1" value="ist" style="rhombus;whiteSpace=wrap;html=1;" parent="1" vertex="1">
          <mxGeometry x="-75" y="635" width="155" height="80" as="geometry" />
        </mxCell>
        <mxCell id="Q0D2h3UwgnJ5SMxdu1O4-2" value="Id" style="ellipse;whiteSpace=wrap;html=1;fontStyle=4" parent="1" vertex="1">
          <mxGeometry x="-210" y="740" width="120" height="80" as="geometry" />
        </mxCell>
        <mxCell id="Q0D2h3UwgnJ5SMxdu1O4-4" value="Typ" style="rounded=0;whiteSpace=wrap;html=1;" parent="1" vertex="1">
          <mxGeometry x="-50" y="780" width="120" height="60" as="geometry" />
        </mxCell>
        <mxCell id="Q0D2h3UwgnJ5SMxdu1O4-5" value="" style="endArrow=none;html=1;rounded=0;" parent="1" source="Q0D2h3UwgnJ5SMxdu1O4-4" target="Q0D2h3UwgnJ5SMxdu1O4-1" edge="1">
          <mxGeometry width="50" height="50" relative="1" as="geometry">
            <mxPoint x="-230" y="640" as="sourcePoint" />
            <mxPoint x="-180" y="590" as="targetPoint" />
          </mxGeometry>
        </mxCell>
        <mxCell id="Q0D2h3UwgnJ5SMxdu1O4-6" value="" style="endArrow=none;html=1;rounded=0;" parent="1" source="peA1cHa59COo_uJrest4-14" target="Q0D2h3UwgnJ5SMxdu1O4-4" edge="1">
          <mxGeometry width="50" height="50" relative="1" as="geometry">
            <mxPoint x="-290" y="700" as="sourcePoint" />
            <mxPoint x="-240" y="650" as="targetPoint" />
          </mxGeometry>
        </mxCell>
        <mxCell id="Q0D2h3UwgnJ5SMxdu1O4-7" value="" style="endArrow=none;html=1;rounded=0;" parent="1" source="18rr-xaSQHmW7nfvRvTj-31" target="Q0D2h3UwgnJ5SMxdu1O4-4" edge="1">
          <mxGeometry width="50" height="50" relative="1" as="geometry">
            <mxPoint x="64.01889972960589" y="883.9445955431265" as="sourcePoint" />
            <mxPoint x="250" y="850" as="targetPoint" />
          </mxGeometry>
        </mxCell>
        <mxCell id="Q0D2h3UwgnJ5SMxdu1O4-8" value="" style="endArrow=none;html=1;rounded=0;" parent="1" source="Q0D2h3UwgnJ5SMxdu1O4-2" target="Q0D2h3UwgnJ5SMxdu1O4-4" edge="1">
          <mxGeometry width="50" height="50" relative="1" as="geometry">
            <mxPoint x="110" y="830" as="sourcePoint" />
            <mxPoint x="160" y="780" as="targetPoint" />
          </mxGeometry>
        </mxCell>
        <mxCell id="Q0D2h3UwgnJ5SMxdu1O4-9" value="[1..1]" style="text;html=1;align=center;verticalAlign=middle;whiteSpace=wrap;rounded=0;" parent="1" vertex="1">
          <mxGeometry x="-50" y="750" width="60" height="30" as="geometry" />
        </mxCell>
        <mxCell id="Q0D2h3UwgnJ5SMxdu1O4-10" value="[1..*]" style="text;html=1;align=center;verticalAlign=middle;whiteSpace=wrap;rounded=0;" parent="1" vertex="1">
          <mxGeometry x="-60" y="460" width="60" height="30" as="geometry" />
        </mxCell>
        <mxCell id="18rr-xaSQHmW7nfvRvTj-1" value="Wartungsart" style="ellipse;whiteSpace=wrap;html=1;" parent="1" vertex="1">
          <mxGeometry x="-130" y="90" width="120" height="80" as="geometry" />
        </mxCell>
        <mxCell id="18rr-xaSQHmW7nfvRvTj-2" value="Datum ARC" style="ellipse;whiteSpace=wrap;html=1;" parent="1" vertex="1">
          <mxGeometry x="-280" y="195" width="120" height="80" as="geometry" />
        </mxCell>
        <mxCell id="18rr-xaSQHmW7nfvRvTj-3" value="Datum Flugzeitwartung" style="ellipse;whiteSpace=wrap;html=1;" parent="1" vertex="1">
          <mxGeometry x="-430" y="195" width="120" height="80" as="geometry" />
        </mxCell>
        <mxCell id="18rr-xaSQHmW7nfvRvTj-5" value="&lt;span style=&quot;text-align: left;&quot;&gt;Landekosten&lt;/span&gt;" style="ellipse;whiteSpace=wrap;html=1;" parent="1" vertex="1">
          <mxGeometry x="-490" y="270" width="120" height="80" as="geometry" />
        </mxCell>
        <mxCell id="18rr-xaSQHmW7nfvRvTj-6" value="" style="endArrow=none;html=1;rounded=0;" parent="1" source="18rr-xaSQHmW7nfvRvTj-3" target="peA1cHa59COo_uJrest4-6" edge="1">
          <mxGeometry width="50" height="50" relative="1" as="geometry">
            <mxPoint x="-350" y="530" as="sourcePoint" />
            <mxPoint x="-300" y="480" as="targetPoint" />
          </mxGeometry>
        </mxCell>
        <mxCell id="18rr-xaSQHmW7nfvRvTj-7" value="" style="endArrow=none;html=1;rounded=0;" parent="1" source="18rr-xaSQHmW7nfvRvTj-2" target="peA1cHa59COo_uJrest4-6" edge="1">
          <mxGeometry width="50" height="50" relative="1" as="geometry">
            <mxPoint x="-110" y="360" as="sourcePoint" />
            <mxPoint x="-60" y="310" as="targetPoint" />
          </mxGeometry>
        </mxCell>
        <mxCell id="18rr-xaSQHmW7nfvRvTj-8" value="" style="endArrow=none;html=1;rounded=0;" parent="1" source="peA1cHa59COo_uJrest4-6" target="18rr-xaSQHmW7nfvRvTj-1" edge="1">
          <mxGeometry width="50" height="50" relative="1" as="geometry">
            <mxPoint x="-430" y="480" as="sourcePoint" />
            <mxPoint x="-380" y="430" as="targetPoint" />
          </mxGeometry>
        </mxCell>
        <mxCell id="18rr-xaSQHmW7nfvRvTj-9" value="" style="endArrow=none;html=1;rounded=0;" parent="1" source="peA1cHa59COo_uJrest4-6" target="18rr-xaSQHmW7nfvRvTj-5" edge="1">
          <mxGeometry width="50" height="50" relative="1" as="geometry">
            <mxPoint x="-500" y="460" as="sourcePoint" />
            <mxPoint x="-450" y="410" as="targetPoint" />
          </mxGeometry>
        </mxCell>
        <mxCell id="18rr-xaSQHmW7nfvRvTj-19" value="Pilot1" style="ellipse;whiteSpace=wrap;html=1;" parent="1" vertex="1">
          <mxGeometry x="690" y="300" width="120" height="80" as="geometry" />
        </mxCell>
        <mxCell id="18rr-xaSQHmW7nfvRvTj-20" value="Pilot2" style="ellipse;whiteSpace=wrap;html=1;" parent="1" vertex="1">
          <mxGeometry x="790" y="250" width="120" height="80" as="geometry" />
        </mxCell>
        <mxCell id="18rr-xaSQHmW7nfvRvTj-21" value="" style="endArrow=none;html=1;rounded=0;" parent="1" source="peA1cHa59COo_uJrest4-94" target="18rr-xaSQHmW7nfvRvTj-19" edge="1">
          <mxGeometry width="50" height="50" relative="1" as="geometry">
            <mxPoint x="690" y="430" as="sourcePoint" />
            <mxPoint x="740" y="380" as="targetPoint" />
          </mxGeometry>
        </mxCell>
        <mxCell id="18rr-xaSQHmW7nfvRvTj-22" value="" style="endArrow=none;html=1;rounded=0;" parent="1" source="18rr-xaSQHmW7nfvRvTj-20" target="peA1cHa59COo_uJrest4-94" edge="1">
          <mxGeometry width="50" height="50" relative="1" as="geometry">
            <mxPoint x="580" y="420" as="sourcePoint" />
            <mxPoint x="630" y="370" as="targetPoint" />
          </mxGeometry>
        </mxCell>
        <mxCell id="18rr-xaSQHmW7nfvRvTj-23" value="Kategorie" style="ellipse;whiteSpace=wrap;html=1;" parent="1" vertex="1">
          <mxGeometry x="490" y="900" width="120" height="80" as="geometry" />
        </mxCell>
        <mxCell id="18rr-xaSQHmW7nfvRvTj-24" value="Id" style="ellipse;whiteSpace=wrap;html=1;fontStyle=4" parent="1" vertex="1">
          <mxGeometry x="380" y="955" width="120" height="80" as="geometry" />
        </mxCell>
        <mxCell id="18rr-xaSQHmW7nfvRvTj-25" value="Preiskategorie" style="rounded=0;whiteSpace=wrap;html=1;" parent="1" vertex="1">
          <mxGeometry x="342.5" y="880" width="120" height="60" as="geometry" />
        </mxCell>
        <mxCell id="18rr-xaSQHmW7nfvRvTj-26" value="" style="endArrow=none;html=1;rounded=0;" parent="1" source="18rr-xaSQHmW7nfvRvTj-23" target="18rr-xaSQHmW7nfvRvTj-25" edge="1">
          <mxGeometry width="50" height="50" relative="1" as="geometry">
            <mxPoint x="60" y="870" as="sourcePoint" />
            <mxPoint x="110" y="820" as="targetPoint" />
          </mxGeometry>
        </mxCell>
        <mxCell id="18rr-xaSQHmW7nfvRvTj-28" value="" style="endArrow=none;html=1;rounded=0;" parent="1" source="18rr-xaSQHmW7nfvRvTj-24" target="18rr-xaSQHmW7nfvRvTj-25" edge="1">
          <mxGeometry width="50" height="50" relative="1" as="geometry">
            <mxPoint x="460" y="1000" as="sourcePoint" />
            <mxPoint x="510" y="950" as="targetPoint" />
          </mxGeometry>
        </mxCell>
        <mxCell id="18rr-xaSQHmW7nfvRvTj-29" value="[1..1]" style="text;html=1;align=center;verticalAlign=middle;whiteSpace=wrap;rounded=0;" parent="1" vertex="1">
          <mxGeometry x="290" y="880" width="60" height="30" as="geometry" />
        </mxCell>
        <mxCell id="18rr-xaSQHmW7nfvRvTj-30" value="[1..*]" style="text;html=1;align=center;verticalAlign=middle;whiteSpace=wrap;rounded=0;" parent="1" vertex="1">
          <mxGeometry y="840" width="60" height="30" as="geometry" />
        </mxCell>
        <mxCell id="18rr-xaSQHmW7nfvRvTj-31" value="hat" style="rhombus;whiteSpace=wrap;html=1;" parent="1" vertex="1">
          <mxGeometry x="20" y="875" width="155" height="80" as="geometry" />
        </mxCell>
        <mxCell id="18rr-xaSQHmW7nfvRvTj-32" value="" style="endArrow=none;html=1;rounded=0;" parent="1" source="18rr-xaSQHmW7nfvRvTj-31" target="18rr-xaSQHmW7nfvRvTj-25" edge="1">
          <mxGeometry width="50" height="50" relative="1" as="geometry">
            <mxPoint x="60" y="826" as="sourcePoint" />
            <mxPoint x="50" y="630" as="targetPoint" />
          </mxGeometry>
        </mxCell>
        <mxCell id="18rr-xaSQHmW7nfvRvTj-33" value="Preis" style="ellipse;whiteSpace=wrap;html=1;" parent="1" vertex="1">
          <mxGeometry x="220" y="955" width="120" height="80" as="geometry" />
        </mxCell>
        <mxCell id="18rr-xaSQHmW7nfvRvTj-34" value="" style="endArrow=none;html=1;rounded=0;" parent="1" source="18rr-xaSQHmW7nfvRvTj-33" target="18rr-xaSQHmW7nfvRvTj-25" edge="1">
          <mxGeometry width="50" height="50" relative="1" as="geometry">
            <mxPoint x="-220" y="1060" as="sourcePoint" />
            <mxPoint x="-170" y="1010" as="targetPoint" />
          </mxGeometry>
        </mxCell>
        <mxCell id="18rr-xaSQHmW7nfvRvTj-35" value="kostet pro Minute" style="rhombus;whiteSpace=wrap;html=1;" parent="1" vertex="1">
          <mxGeometry x="20" y="275" width="155" height="80" as="geometry" />
        </mxCell>
        <mxCell id="18rr-xaSQHmW7nfvRvTj-36" value="" style="endArrow=none;html=1;rounded=0;" parent="1" source="peA1cHa59COo_uJrest4-6" target="18rr-xaSQHmW7nfvRvTj-35" edge="1">
          <mxGeometry width="50" height="50" relative="1" as="geometry">
            <mxPoint x="160" y="380" as="sourcePoint" />
            <mxPoint x="210" y="330" as="targetPoint" />
          </mxGeometry>
        </mxCell>
        <mxCell id="18rr-xaSQHmW7nfvRvTj-37" value="" style="endArrow=none;html=1;rounded=0;" parent="1" source="peA1cHa59COo_uJrest4-2" target="18rr-xaSQHmW7nfvRvTj-35" edge="1">
          <mxGeometry width="50" height="50" relative="1" as="geometry">
            <mxPoint x="310" y="350" as="sourcePoint" />
            <mxPoint x="360" y="300" as="targetPoint" />
          </mxGeometry>
        </mxCell>
        <mxCell id="18rr-xaSQHmW7nfvRvTj-38" value="[1..*]" style="text;html=1;align=center;verticalAlign=middle;whiteSpace=wrap;rounded=0;" parent="1" vertex="1">
          <mxGeometry x="165" y="240" width="60" height="30" as="geometry" />
        </mxCell>
        <mxCell id="18rr-xaSQHmW7nfvRvTj-39" value="[1..*]" style="text;html=1;align=center;verticalAlign=middle;whiteSpace=wrap;rounded=0;" parent="1" vertex="1">
          <mxGeometry x="-15" y="350" width="60" height="30" as="geometry" />
        </mxCell>
        <mxCell id="18rr-xaSQHmW7nfvRvTj-40" value="Kosten" style="ellipse;whiteSpace=wrap;html=1;" parent="1" vertex="1">
          <mxGeometry x="-15" y="180" width="120" height="80" as="geometry" />
        </mxCell>
        <mxCell id="18rr-xaSQHmW7nfvRvTj-41" value="" style="endArrow=none;html=1;rounded=0;" parent="1" source="18rr-xaSQHmW7nfvRvTj-35" target="18rr-xaSQHmW7nfvRvTj-40" edge="1">
          <mxGeometry width="50" height="50" relative="1" as="geometry">
            <mxPoint x="210" y="360" as="sourcePoint" />
            <mxPoint x="260" y="310" as="targetPoint" />
          </mxGeometry>
        </mxCell>
        <mxCell id="18rr-xaSQHmW7nfvRvTj-42" value="Reservierung" style="rounded=0;whiteSpace=wrap;html=1;" parent="1" vertex="1">
          <mxGeometry x="950" y="705" width="120" height="60" as="geometry" />
        </mxCell>
        <mxCell id="18rr-xaSQHmW7nfvRvTj-43" value="" style="endArrow=none;html=1;rounded=0;" parent="1" source="18rr-xaSQHmW7nfvRvTj-48" target="18rr-xaSQHmW7nfvRvTj-42" edge="1">
          <mxGeometry width="50" height="50" relative="1" as="geometry">
            <mxPoint x="1070" y="824" as="sourcePoint" />
            <mxPoint x="910" y="570" as="targetPoint" />
          </mxGeometry>
        </mxCell>
        <mxCell id="18rr-xaSQHmW7nfvRvTj-44" value="" style="endArrow=none;html=1;rounded=0;" parent="1" source="18rr-xaSQHmW7nfvRvTj-47" target="18rr-xaSQHmW7nfvRvTj-42" edge="1">
          <mxGeometry width="50" height="50" relative="1" as="geometry">
            <mxPoint x="977" y="812" as="sourcePoint" />
            <mxPoint x="1310" y="700" as="targetPoint" />
          </mxGeometry>
        </mxCell>
        <mxCell id="18rr-xaSQHmW7nfvRvTj-45" value="Startzeit" style="ellipse;whiteSpace=wrap;html=1;" parent="1" vertex="1">
          <mxGeometry x="804" y="660" width="120" height="80" as="geometry" />
        </mxCell>
        <mxCell id="18rr-xaSQHmW7nfvRvTj-46" value="" style="endArrow=none;html=1;rounded=0;" parent="1" source="18rr-xaSQHmW7nfvRvTj-45" target="18rr-xaSQHmW7nfvRvTj-42" edge="1">
          <mxGeometry width="50" height="50" relative="1" as="geometry">
            <mxPoint x="580" y="810" as="sourcePoint" />
            <mxPoint x="630" y="760" as="targetPoint" />
          </mxGeometry>
        </mxCell>
        <mxCell id="18rr-xaSQHmW7nfvRvTj-47" value="Id" style="ellipse;whiteSpace=wrap;html=1;fontStyle=4" parent="1" vertex="1">
          <mxGeometry x="790" y="750" width="120" height="80" as="geometry" />
        </mxCell>
        <mxCell id="18rr-xaSQHmW7nfvRvTj-48" value="Endzeit" style="ellipse;whiteSpace=wrap;html=1;" parent="1" vertex="1">
          <mxGeometry x="804" y="850" width="120" height="80" as="geometry" />
        </mxCell>
        <mxCell id="18rr-xaSQHmW7nfvRvTj-49" value="Gastkontakt" style="ellipse;whiteSpace=wrap;html=1;" parent="1" vertex="1">
          <mxGeometry x="1057.5" y="850" width="120" height="80" as="geometry" />
        </mxCell>
        <mxCell id="18rr-xaSQHmW7nfvRvTj-50" value="Gastname" style="ellipse;whiteSpace=wrap;html=1;" parent="1" vertex="1">
          <mxGeometry x="1130" y="780" width="120" height="80" as="geometry" />
        </mxCell>
        <mxCell id="18rr-xaSQHmW7nfvRvTj-51" value="hat" style="rhombus;whiteSpace=wrap;html=1;" parent="1" vertex="1">
          <mxGeometry x="902.5" y="575" width="155" height="80" as="geometry" />
        </mxCell>
        <mxCell id="18rr-xaSQHmW7nfvRvTj-52" value="" style="endArrow=none;html=1;rounded=0;" parent="1" source="18rr-xaSQHmW7nfvRvTj-50" target="18rr-xaSQHmW7nfvRvTj-42" edge="1">
          <mxGeometry width="50" height="50" relative="1" as="geometry">
            <mxPoint x="1150" y="750" as="sourcePoint" />
            <mxPoint x="1200" y="700" as="targetPoint" />
          </mxGeometry>
        </mxCell>
        <mxCell id="18rr-xaSQHmW7nfvRvTj-53" value="" style="endArrow=none;html=1;rounded=0;" parent="1" source="18rr-xaSQHmW7nfvRvTj-51" target="peA1cHa59COo_uJrest4-37" edge="1">
          <mxGeometry width="50" height="50" relative="1" as="geometry">
            <mxPoint x="1480" y="920" as="sourcePoint" />
            <mxPoint x="1530" y="870" as="targetPoint" />
          </mxGeometry>
        </mxCell>
        <mxCell id="18rr-xaSQHmW7nfvRvTj-54" value="" style="endArrow=none;html=1;rounded=0;" parent="1" source="18rr-xaSQHmW7nfvRvTj-42" target="18rr-xaSQHmW7nfvRvTj-51" edge="1">
          <mxGeometry width="50" height="50" relative="1" as="geometry">
            <mxPoint x="1470" y="920" as="sourcePoint" />
            <mxPoint x="1520" y="870" as="targetPoint" />
          </mxGeometry>
        </mxCell>
        <mxCell id="18rr-xaSQHmW7nfvRvTj-55" value="" style="endArrow=none;html=1;rounded=0;" parent="1" source="18rr-xaSQHmW7nfvRvTj-49" target="18rr-xaSQHmW7nfvRvTj-42" edge="1">
          <mxGeometry width="50" height="50" relative="1" as="geometry">
            <mxPoint x="1292" y="930" as="sourcePoint" />
            <mxPoint x="1342" y="880" as="targetPoint" />
          </mxGeometry>
        </mxCell>
        <mxCell id="18rr-xaSQHmW7nfvRvTj-57" value="[1..1]" style="text;html=1;align=center;verticalAlign=middle;whiteSpace=wrap;rounded=0;" parent="1" vertex="1">
          <mxGeometry x="1019" y="535" width="60" height="30" as="geometry" />
        </mxCell>
        <mxCell id="18rr-xaSQHmW7nfvRvTj-58" value="[1..*]" style="text;html=1;align=center;verticalAlign=middle;whiteSpace=wrap;rounded=0;" parent="1" vertex="1">
          <mxGeometry x="995" y="675" width="60" height="30" as="geometry" />
        </mxCell>
        <mxCell id="18rr-xaSQHmW7nfvRvTj-60" value="ist" style="rhombus;whiteSpace=wrap;html=1;" parent="1" vertex="1">
          <mxGeometry x="1300" y="40" width="155" height="80" as="geometry" />
        </mxCell>
        <mxCell id="18rr-xaSQHmW7nfvRvTj-61" value="" style="endArrow=none;html=1;rounded=0;" parent="1" source="18rr-xaSQHmW7nfvRvTj-42" target="18rr-xaSQHmW7nfvRvTj-60" edge="1">
          <mxGeometry width="50" height="50" relative="1" as="geometry">
            <mxPoint x="1370" y="870" as="sourcePoint" />
            <mxPoint x="1420" y="820" as="targetPoint" />
            <Array as="points">
              <mxPoint x="1460" y="620" />
            </Array>
          </mxGeometry>
        </mxCell>
        <mxCell id="18rr-xaSQHmW7nfvRvTj-63" value="[1..*]" style="text;html=1;align=center;verticalAlign=middle;whiteSpace=wrap;rounded=0;" parent="1" vertex="1">
          <mxGeometry x="1060" y="705" width="60" height="30" as="geometry" />
        </mxCell>
        <mxCell id="18rr-xaSQHmW7nfvRvTj-64" value="" style="endArrow=none;html=1;rounded=0;" parent="1" source="18rr-xaSQHmW7nfvRvTj-60" target="peA1cHa59COo_uJrest4-2" edge="1">
          <mxGeometry width="50" height="50" relative="1" as="geometry">
            <mxPoint x="1240" y="70" as="sourcePoint" />
            <mxPoint x="-40" y="50" as="targetPoint" />
            <Array as="points">
              <mxPoint x="940" y="40" />
              <mxPoint x="220" y="40" />
            </Array>
          </mxGeometry>
        </mxCell>
        <mxCell id="18rr-xaSQHmW7nfvRvTj-65" value="[1..1]" style="text;html=1;align=center;verticalAlign=middle;whiteSpace=wrap;rounded=0;" parent="1" vertex="1">
          <mxGeometry x="220" y="40" width="60" height="30" as="geometry" />
        </mxCell>
        <mxCell id="18rr-xaSQHmW7nfvRvTj-66" value="" style="endArrow=none;html=1;rounded=0;" parent="1" source="18rr-xaSQHmW7nfvRvTj-42" target="18rr-xaSQHmW7nfvRvTj-67" edge="1">
          <mxGeometry width="50" height="50" relative="1" as="geometry">
            <mxPoint x="760" y="1040" as="sourcePoint" />
            <mxPoint x="1010" y="1140" as="targetPoint" />
            <Array as="points">
              <mxPoint x="1010" y="1090" />
            </Array>
          </mxGeometry>
        </mxCell>
        <mxCell id="18rr-xaSQHmW7nfvRvTj-67" value="gehört zu" style="rhombus;whiteSpace=wrap;html=1;" parent="1" vertex="1">
          <mxGeometry x="-475" y="990" width="155" height="80" as="geometry" />
        </mxCell>
        <mxCell id="18rr-xaSQHmW7nfvRvTj-68" value="[1..*]" style="text;html=1;align=center;verticalAlign=middle;whiteSpace=wrap;rounded=0;" parent="1" vertex="1">
          <mxGeometry x="950" y="770" width="60" height="30" as="geometry" />
        </mxCell>
        <mxCell id="18rr-xaSQHmW7nfvRvTj-69" value="" style="endArrow=none;html=1;rounded=0;" parent="1" source="peA1cHa59COo_uJrest4-6" target="18rr-xaSQHmW7nfvRvTj-67" edge="1">
          <mxGeometry width="50" height="50" relative="1" as="geometry">
            <mxPoint x="-310" y="750" as="sourcePoint" />
            <mxPoint x="-260" y="700" as="targetPoint" />
            <Array as="points">
              <mxPoint x="-430" y="400" />
            </Array>
          </mxGeometry>
        </mxCell>
        <mxCell id="18rr-xaSQHmW7nfvRvTj-70" value="[1..1]" style="text;html=1;align=center;verticalAlign=middle;whiteSpace=wrap;rounded=0;" parent="1" vertex="1">
          <mxGeometry x="20" y="440" width="60" height="30" as="geometry" />
        </mxCell>
        <mxCell id="18rr-xaSQHmW7nfvRvTj-71" value="[1..1]" style="text;html=1;align=center;verticalAlign=middle;whiteSpace=wrap;rounded=0;" parent="1" vertex="1">
          <mxGeometry x="-160" y="380" width="60" height="30" as="geometry" />
        </mxCell>
        <mxCell id="18rr-xaSQHmW7nfvRvTj-73" value="Pioltenflug" style="rounded=0;whiteSpace=wrap;html=1;" parent="1" vertex="1">
          <mxGeometry x="1300" y="825" width="120" height="60" as="geometry" />
        </mxCell>
        <mxCell id="18rr-xaSQHmW7nfvRvTj-74" value="" style="endArrow=none;html=1;rounded=0;" parent="1" source="18rr-xaSQHmW7nfvRvTj-79" target="18rr-xaSQHmW7nfvRvTj-73" edge="1">
          <mxGeometry width="50" height="50" relative="1" as="geometry">
            <mxPoint x="1540" y="1174" as="sourcePoint" />
            <mxPoint x="1380" y="920" as="targetPoint" />
          </mxGeometry>
        </mxCell>
        <mxCell id="18rr-xaSQHmW7nfvRvTj-75" value="" style="endArrow=none;html=1;rounded=0;" parent="1" source="18rr-xaSQHmW7nfvRvTj-78" target="18rr-xaSQHmW7nfvRvTj-73" edge="1">
          <mxGeometry width="50" height="50" relative="1" as="geometry">
            <mxPoint x="1447" y="1162" as="sourcePoint" />
            <mxPoint x="1780" y="1050" as="targetPoint" />
          </mxGeometry>
        </mxCell>
        <mxCell id="18rr-xaSQHmW7nfvRvTj-76" value="Startzeit" style="ellipse;whiteSpace=wrap;html=1;" parent="1" vertex="1">
          <mxGeometry x="1510" y="770" width="120" height="80" as="geometry" />
        </mxCell>
        <mxCell id="18rr-xaSQHmW7nfvRvTj-77" value="" style="endArrow=none;html=1;rounded=0;" parent="1" source="18rr-xaSQHmW7nfvRvTj-76" target="18rr-xaSQHmW7nfvRvTj-73" edge="1">
          <mxGeometry width="50" height="50" relative="1" as="geometry">
            <mxPoint x="1050" y="1160" as="sourcePoint" />
            <mxPoint x="1100" y="1110" as="targetPoint" />
          </mxGeometry>
        </mxCell>
        <mxCell id="18rr-xaSQHmW7nfvRvTj-78" value="Id" style="ellipse;whiteSpace=wrap;html=1;fontStyle=4" parent="1" vertex="1">
          <mxGeometry x="1510" y="870" width="120" height="80" as="geometry" />
        </mxCell>
        <mxCell id="18rr-xaSQHmW7nfvRvTj-79" value="Endzeit" style="ellipse;whiteSpace=wrap;html=1;" parent="1" vertex="1">
          <mxGeometry x="1177.5" y="910" width="120" height="80" as="geometry" />
        </mxCell>
        <mxCell id="18rr-xaSQHmW7nfvRvTj-83" value="" style="endArrow=none;html=1;rounded=0;" parent="1" source="18rr-xaSQHmW7nfvRvTj-73" target="peA1cHa59COo_uJrest4-37" edge="1">
          <mxGeometry width="50" height="50" relative="1" as="geometry">
            <mxPoint x="1940" y="1270" as="sourcePoint" />
            <mxPoint x="1459" y="1000" as="targetPoint" />
          </mxGeometry>
        </mxCell>
        <mxCell id="18rr-xaSQHmW7nfvRvTj-85" value="[1..*]" style="text;html=1;align=center;verticalAlign=middle;whiteSpace=wrap;rounded=0;" parent="1" vertex="1">
          <mxGeometry x="1318.5" y="890" width="50" height="20" as="geometry" />
        </mxCell>
        <mxCell id="18rr-xaSQHmW7nfvRvTj-86" value="[1..*]" style="text;html=1;align=center;verticalAlign=middle;whiteSpace=wrap;rounded=0;" parent="1" vertex="1">
          <mxGeometry x="1395" y="800" width="60" height="30" as="geometry" />
        </mxCell>
        <mxCell id="18rr-xaSQHmW7nfvRvTj-87" value="[1..*]" style="text;html=1;align=center;verticalAlign=middle;whiteSpace=wrap;rounded=0;" parent="1" vertex="1">
          <mxGeometry x="1313.5" y="780" width="60" height="30" as="geometry" />
        </mxCell>
        <mxCell id="18rr-xaSQHmW7nfvRvTj-88" value="gehört zu" style="rhombus;whiteSpace=wrap;html=1;" parent="1" vertex="1">
          <mxGeometry x="-320" y="1055" width="155" height="80" as="geometry" />
        </mxCell>
        <mxCell id="18rr-xaSQHmW7nfvRvTj-89" value="ist" style="rhombus;whiteSpace=wrap;html=1;" parent="1" vertex="1">
          <mxGeometry x="1470" y="10" width="155" height="80" as="geometry" />
        </mxCell>
        <mxCell id="18rr-xaSQHmW7nfvRvTj-90" value="" style="endArrow=none;html=1;rounded=0;" parent="1" source="18rr-xaSQHmW7nfvRvTj-89" target="18rr-xaSQHmW7nfvRvTj-73" edge="1">
          <mxGeometry width="50" height="50" relative="1" as="geometry">
            <mxPoint x="530" y="590" as="sourcePoint" />
            <mxPoint x="580" y="540" as="targetPoint" />
            <Array as="points">
              <mxPoint x="1520" y="670" />
            </Array>
          </mxGeometry>
        </mxCell>
        <mxCell id="18rr-xaSQHmW7nfvRvTj-91" value="" style="endArrow=none;html=1;rounded=0;" parent="1" source="18rr-xaSQHmW7nfvRvTj-88" target="18rr-xaSQHmW7nfvRvTj-73" edge="1">
          <mxGeometry width="50" height="50" relative="1" as="geometry">
            <mxPoint x="1190" y="1060" as="sourcePoint" />
            <mxPoint x="580" y="540" as="targetPoint" />
            <Array as="points">
              <mxPoint x="1360" y="1110" />
            </Array>
          </mxGeometry>
        </mxCell>
        <mxCell id="18rr-xaSQHmW7nfvRvTj-93" value="" style="endArrow=none;html=1;rounded=0;" parent="1" source="18rr-xaSQHmW7nfvRvTj-88" target="peA1cHa59COo_uJrest4-6" edge="1">
          <mxGeometry width="50" height="50" relative="1" as="geometry">
            <mxPoint x="-720" y="660" as="sourcePoint" />
            <mxPoint x="-670" y="610" as="targetPoint" />
            <Array as="points">
              <mxPoint x="-560" y="1095" />
              <mxPoint x="-550" y="430" />
            </Array>
          </mxGeometry>
        </mxCell>
        <mxCell id="18rr-xaSQHmW7nfvRvTj-94" value="[1..1]" style="text;html=1;align=center;verticalAlign=middle;whiteSpace=wrap;rounded=0;" parent="1" vertex="1">
          <mxGeometry x="-560" y="400" width="60" height="30" as="geometry" />
        </mxCell>
        <mxCell id="18rr-xaSQHmW7nfvRvTj-95" value="" style="endArrow=none;html=1;rounded=0;" parent="1" source="18rr-xaSQHmW7nfvRvTj-89" target="peA1cHa59COo_uJrest4-2" edge="1">
          <mxGeometry width="50" height="50" relative="1" as="geometry">
            <mxPoint x="1240" y="160" as="sourcePoint" />
            <mxPoint x="1290" y="110" as="targetPoint" />
            <Array as="points">
              <mxPoint x="1120" y="20" />
              <mxPoint x="160" y="20" />
            </Array>
          </mxGeometry>
        </mxCell>
        <mxCell id="18rr-xaSQHmW7nfvRvTj-96" value="[1..1]" style="text;html=1;align=center;verticalAlign=middle;whiteSpace=wrap;rounded=0;" parent="1" vertex="1">
          <mxGeometry x="100" y="10" width="60" height="30" as="geometry" />
        </mxCell>
        <mxCell id="CFSrGqfUrTKCSK-nhkk2-1" value="Bemerkung" style="ellipse;whiteSpace=wrap;html=1;" parent="1" vertex="1">
          <mxGeometry x="1403.5" y="920" width="120" height="80" as="geometry" />
        </mxCell>
        <mxCell id="CFSrGqfUrTKCSK-nhkk2-2" value="" style="endArrow=none;html=1;rounded=0;" parent="1" source="18rr-xaSQHmW7nfvRvTj-73" target="CFSrGqfUrTKCSK-nhkk2-1" edge="1">
          <mxGeometry width="50" height="50" relative="1" as="geometry">
            <mxPoint x="1350" y="770" as="sourcePoint" />
            <mxPoint x="1400" y="720" as="targetPoint" />
          </mxGeometry>
        </mxCell>
        <mxCell id="Odpy5iyklyWhMNB7M_xC-1" value="Datum" style="ellipse;whiteSpace=wrap;html=1;" vertex="1" parent="1">
          <mxGeometry x="770" y="565" width="120" height="80" as="geometry" />
        </mxCell>
        <mxCell id="Odpy5iyklyWhMNB7M_xC-3" value="" style="endArrow=none;html=1;rounded=0;" edge="1" parent="1" source="Odpy5iyklyWhMNB7M_xC-1" target="18rr-xaSQHmW7nfvRvTj-42">
          <mxGeometry width="50" height="50" relative="1" as="geometry">
            <mxPoint x="750" y="730" as="sourcePoint" />
            <mxPoint x="800" y="680" as="targetPoint" />
          </mxGeometry>
        </mxCell>
      </root>
    </mxGraphModel>
  </diagram>
</mxfile>
